<?xml version="1.0" encoding="utf-8"?>
<!-- Generator: Adobe Illustrator 16.0.0, SVG Export Plug-In . SVG Version: 6.00 Build 0)  -->
<!DOCTYPE svg PUBLIC "-//W3C//DTD SVG 1.1//EN" "http://www.w3.org/Graphics/SVG/1.1/DTD/svg11.dtd">
<svg version="1.1" id="Layer_1" xmlns="http://www.w3.org/2000/svg" xmlns:xlink="http://www.w3.org/1999/xlink" x="0px" y="0px"
	 width="312.68px" height="251.282px" viewBox="0 0 312.68 251.282" enable-background="new 0 0 312.68 251.282"
	 xml:space="preserve">
<g>
	<path fill="#E6E7E8" d="M271.479,231.547v-26.016H71.396v26.016H271.479z M239.181,169.478v-26.016H39.097v26.016H239.181z
		 M40.361,218.539c0,15.538,12.64,28.178,28.178,28.178h211.802v-9.457H68.539c-1.578,0-2.856-1.279-2.856-2.856v-31.729
		c0-1.578,1.278-2.856,2.856-2.856h211.802v-9.457H68.539C53.001,190.361,40.361,203.001,40.361,218.539z M248.043,175.191H36.24
		c-1.577,0-2.856-1.279-2.856-2.856v-31.729c0-1.578,1.279-2.856,2.856-2.856h211.803v-9.457H36.24
		c-15.537,0-28.178,12.64-28.178,28.178s12.641,28.178,28.178,28.178h211.803V175.191z M40.361,94.401
		c0,15.538,12.64,28.178,28.178,28.178h211.802v-9.457H68.539c-1.578,0-2.856-1.279-2.856-2.856V78.537
		c0-1.578,1.278-2.856,2.856-2.856h211.802v-9.457H68.539C53.001,66.224,40.361,78.864,40.361,94.401z M298.809,45.341V19.325
		H98.725v26.016H298.809z M307.669,4.155H95.868c-15.538,0-28.179,12.641-28.179,28.178S80.33,60.511,95.868,60.511h211.801v-9.457
		H95.868c-1.578,0-2.856-1.279-2.856-2.856V16.468c0-1.578,1.278-2.856,2.856-2.856h211.801V4.155z M271.479,107.41V81.393H71.396
		v26.017H271.479z"/>
</g>
</svg>
